<svg width="20" height="14" viewBox="0 0 20 14" fill="none" xmlns="http://www.w3.org/2000/svg">
<path d="M14.9688 4.2943C14.9578 3.14182 16.2715 2.47542 17.195 3.165L17.9632 3.73866C18.0338 3.79142 18.1081 3.8391 18.1855 3.88136L18.381 3.98811C18.6019 4.10876 18.8316 4.21259 19.0682 4.29871L19.6782 4.5208V4.5208C19.7945 4.56595 19.7962 4.72984 19.6809 4.77741L17.7475 5.57516L17.4103 5.75917C16.3041 6.36273 14.9568 5.55436 14.9688 4.2943V4.2943V4.2943Z" fill="#6B4226"/>
<path d="M13.8667 7.72584C14.0886 6.9675 14.8858 6.52368 15.6473 6.73454V6.73454C16.4088 6.94541 16.8462 7.73111 16.6243 8.48946L15.4899 12.366C15.2666 13.1293 14.479 13.59 13.7036 13.4108V13.4108V13.4108C12.9373 13.163 12.5114 12.3575 12.7377 11.5841L13.8667 7.72584Z" fill="#6B4226"/>
<path d="M9.70796 3.13319L10.277 3.39133L7.07219 10.0771L6.50312 9.81897L9.70796 3.13319Z" fill="#6B4226"/>
<path d="M10.0154 5.24192L10.8331 5.70112L7.32071 11.6191L6.50309 11.1599L10.0154 5.24192Z" fill="#6B4226" fill-opacity="0.75"/>
<path d="M10.0154 5.24192L10.8331 5.70112L7.32071 11.6191L6.50309 11.1599L10.0154 5.24192Z" fill="#D9BF77" fill-opacity="0.25"/>
<path d="M2.89027 1.02449H3.61284L3.59163 2.3136L3.61284 3.83611H2.89027L2.89027 1.02449Z" fill="#D9BF77"/>
<path d="M9.34969 12.5304L10.3937 10.7147L10.7518 10.1623L11.5725 11.4209L12.5046 12.561L9.34969 12.5304Z" fill="#6B4226"/>
<path d="M4.21533 1.03233L6.15294 1.19724L5.64269 6.87071L3.70508 6.70581L3.97414 3.8361L4.21533 1.03233Z" fill="#D9BF77" fill-opacity="0.75"/>
<path d="M4.21533 1.03233L6.15294 1.19724L5.64269 6.87071L3.70508 6.70581L3.97414 3.8361L4.21533 1.03233Z" fill="#6B4226" fill-opacity="0.25"/>
<path d="M7.22565 12.4301L7.70199 12.6976L10.7167 7.61817L10.2403 7.35063L7.22565 12.4301Z" fill="#D9BF77" fill-opacity="0.75"/>
<path d="M7.22565 12.4301L7.70199 12.6976L10.7167 7.61817L10.2403 7.35063L7.22565 12.4301Z" fill="#6B4226" fill-opacity="0.25"/>
<path d="M10.1412 8.75645L10.8278 9.1662L8.64561 12.843L7.959 12.4332L10.1412 8.75645Z" fill="#D9BF77" fill-opacity="0.5"/>
<path d="M10.1412 8.75645L10.8278 9.1662L8.64561 12.843L7.959 12.4332L10.1412 8.75645Z" fill="#1E5F74" fill-opacity="0.5"/>
<path d="M7.49915 0.969824L8.68566 1.2791L7.62714 5.12202L6.56863 8.96494L5.38212 8.65566L7.49915 0.969824Z" fill="#D9BF77" fill-opacity="0.5"/>
<path d="M7.49915 0.969824L8.68566 1.2791L7.62714 5.12202L6.56863 8.96494L5.38212 8.65566L7.49915 0.969824Z" fill="#1E5F74" fill-opacity="0.5"/>
<path d="M15.9721 7.99533C15.9489 7.77935 16.1052 7.58644 16.3214 7.56447V7.56447C16.5375 7.54249 16.7315 7.69976 16.7547 7.91574L17.321 13.186C17.3442 13.402 17.1879 13.5949 16.9718 13.6169V13.6169C16.7556 13.6389 16.5616 13.4816 16.5384 13.2656L15.9721 7.99533Z" fill="#6B4226"/>
<path d="M14.9689 1.48267L17.1767 3.12159L16.006 3.94284L14.9689 1.48267Z" fill="#D9BF77"/>
<path d="M14.377 2.30221L16.5499 3.55314L15.0123 4.65241L14.377 2.30221Z" fill="#D9BF77"/>
<path d="M2.21538 0.946146L3.09641e-05 0.889531L2.21535 2.86548L2.21538 0.946146Z" fill="#D9BF77"/>
</svg>
