<svg width="201" height="141" viewBox="0 0 201 141" fill="none" xmlns="http://www.w3.org/2000/svg">
<path d="M150.437 43.2497C150.326 31.6507 163.553 24.9496 172.84 31.8993L180.53 37.654C181.24 38.1851 181.987 38.6652 182.764 39.0908L186.738 41.2654C187.621 41.7486 188.539 42.1645 189.485 42.5095L197.766 45.5309V45.5309C198.936 45.9862 198.953 47.6356 197.793 48.1153L178.362 56.1498L175.014 57.9808C163.884 64.0665 150.316 55.9341 150.437 43.2497V43.2497V43.2497Z" fill="#6B4226"/>
<path d="M139.368 77.7852C141.594 70.1614 149.602 65.7027 157.255 67.8265V67.8265C164.908 69.9502 169.308 77.8521 167.082 85.476L155.667 124.568C153.426 132.242 145.514 136.87 137.721 135.066V135.066V135.066C130.081 132.59 125.722 124.518 127.974 116.805L139.368 77.7852Z" fill="#6B4226"/>
<path d="M97.5651 31.5557L103.284 34.1556L71.0756 101.491L65.3565 98.8911L97.5651 31.5557Z" fill="#6B4226"/>
<path d="M100.655 52.7936L108.872 57.4184L73.573 117.021L65.356 112.397L100.655 52.7936Z" fill="#6B4226" fill-opacity="0.75"/>
<path d="M100.655 52.7936L108.872 57.4184L73.573 117.021L65.356 112.397L100.655 52.7936Z" fill="#D9BF77" fill-opacity="0.25"/>
<path d="M29.0473 10.318H36.3091L36.0959 23.3013L36.3091 38.6351H29.0473V10.318Z" fill="#D9BF77"/>
<path d="M93.9645 126.199L104.457 107.912L108.056 102.348L116.303 115.025L125.671 126.507L93.9645 126.199Z" fill="#6B4226"/>
<path d="M42.3638 10.3971L61.8368 12.0579L56.7088 69.1979L37.2358 67.5371L39.9398 38.6351L42.3638 10.3971Z" fill="#D9BF77" fill-opacity="0.75"/>
<path d="M42.3638 10.3971L61.8368 12.0579L56.7088 69.1979L37.2358 67.5371L39.9398 38.6351L42.3638 10.3971Z" fill="#6B4226" fill-opacity="0.25"/>
<path d="M72.6179 125.189L77.4052 127.883L107.703 76.7258L102.915 74.0314L72.6179 125.189Z" fill="#D9BF77" fill-opacity="0.75"/>
<path d="M72.6179 125.189L77.4052 127.883L107.703 76.7258L102.915 74.0314L72.6179 125.189Z" fill="#6B4226" fill-opacity="0.25"/>
<path d="M101.919 88.1899L108.819 92.3167L86.8883 129.347L79.9878 125.22L101.919 88.1899Z" fill="#D9BF77" fill-opacity="0.5"/>
<path d="M101.919 88.1899L108.819 92.3167L86.8883 129.347L79.9878 125.22L101.919 88.1899Z" fill="#1E5F74" fill-opacity="0.5"/>
<path d="M75.3664 9.76751L87.2908 12.8823L76.6528 51.586L66.0148 90.2897L54.0903 87.1749L75.3664 9.76751Z" fill="#D9BF77" fill-opacity="0.5"/>
<path d="M75.3664 9.76751L87.2908 12.8823L76.6528 51.586L66.0148 90.2897L54.0903 87.1749L75.3664 9.76751Z" fill="#1E5F74" fill-opacity="0.5"/>
<path d="M159.421 81.7319C159.189 79.5612 160.761 77.6221 162.933 77.4008V77.4008C165.104 77.1794 167.054 78.7597 167.287 80.9304L172.98 134.026C173.213 136.197 171.641 138.136 169.469 138.357V138.357C167.297 138.579 165.348 136.998 165.115 134.828L159.421 81.7319Z" fill="#6B4226"/>
<path d="M150.437 14.9326L172.625 31.4389L160.86 39.71L150.437 14.9326Z" fill="#D9BF77"/>
<path d="M144.488 23.1866L166.326 35.7852L150.874 46.8564L144.488 23.1866Z" fill="#D9BF77"/>
<path d="M22.2644 9.52904L0.000153019 8.95886L22.2641 28.8595L22.2644 9.52904Z" fill="#D9BF77"/>
</svg>
